<?xml version="1.0" encoding="UTF-8"?>
<!DOCTYPE svg PUBLIC "-//W3C//DTD SVG 1.1//EN" "http://www.w3.org/Graphics/SVG/1.1/DTD/svg11.dtd">
<svg xmlns="http://www.w3.org/2000/svg" version="1.1" width="348px" height="112px" style="shape-rendering:geometricPrecision; text-rendering:geometricPrecision; image-rendering:optimizeQuality; fill-rule:evenodd; clip-rule:evenodd" xmlns:xlink="http://www.w3.org/1999/xlink">
<g><path style="opacity:0.666" fill="#b30706" d="M 177.5,-0.5 C 178.5,-0.5 179.5,-0.5 180.5,-0.5C 182.279,0.669736 183.279,2.3364 183.5,4.5C 189.933,4.60383 192.933,7.93716 192.5,14.5C 197.969,9.75645 201.469,11.0898 203,18.5C 205.91,19.4503 207.077,21.4503 206.5,24.5C 207.721,25.0283 208.887,25.695 210,26.5C 210.498,29.4816 210.665,32.4816 210.5,35.5C 209.5,35.5 208.5,35.5 207.5,35.5C 206.822,32.4653 204.822,30.7986 201.5,30.5C 185.806,27.7342 170.139,27.9008 154.5,31C 152.07,31.6429 150.403,33.1429 149.5,35.5C 148.167,32.1667 148.167,28.8333 149.5,25.5C 150.417,24.8728 151.417,24.5394 152.5,24.5C 151.479,21.7726 152.479,19.7726 155.5,18.5C 155.718,13.2321 158.385,11.0654 163.5,12C 164.701,12.9025 165.535,14.0692 166,15.5C 165.038,8.03102 168.204,4.36435 175.5,4.5C 175.392,2.4862 176.058,0.819534 177.5,-0.5 Z M 178.5,2.5 C 179.289,2.78281 179.956,3.28281 180.5,4C 179.184,4.52811 178.517,4.02811 178.5,2.5 Z M 171.5,16.5 C 169.298,14.0216 169.131,11.355 171,8.5C 176.66,6.89344 177.326,7.56011 173,10.5C 171.872,12.3453 171.372,14.3453 171.5,16.5 Z M 182.5,8.5 C 184.489,7.11343 186.322,7.44677 188,9.5C 188.706,11.9712 188.373,14.3046 187,16.5C 187.241,12.7329 185.741,10.0662 182.5,8.5 Z M 177.5,10.5 C 181.36,10.2986 183.194,11.9653 183,15.5C 180.383,11.5241 177.716,11.5241 175,15.5C 174.751,13.332 175.584,11.6653 177.5,10.5 Z M 160.5,14.5 C 162.814,15.1787 163.147,16.512 161.5,18.5C 162.105,20.4812 163.105,20.8146 164.5,19.5C 165.167,20.5 165.833,21.5 166.5,22.5C 167.5,21.8333 168.5,21.1667 169.5,20.5C 170.583,21.365 170.749,22.365 170,23.5C 165.849,25.3602 162.516,24.3602 160,20.5C 159.322,18.4024 159.489,16.4024 160.5,14.5 Z M 192.5,14.5 C 192.728,16.3547 192.061,17.1881 190.5,17C 191.066,16.0053 191.733,15.172 192.5,14.5 Z M 193.5,19.5 C 194.5,19.5 195.5,19.5 196.5,19.5C 196.67,18.1779 196.337,17.0113 195.5,16C 197.382,13.9349 198.382,14.4349 198.5,17.5C 197.672,23.5832 194.338,25.5832 188.5,23.5C 187.313,22.1756 187.646,21.1756 189.5,20.5C 190.524,21.8532 191.857,22.5198 193.5,22.5C 193.5,21.5 193.5,20.5 193.5,19.5 Z M 178.5,15.5 C 179.649,15.7911 180.316,16.6244 180.5,18C 179.61,21.0399 178.61,20.8732 177.5,17.5C 177.863,16.8165 178.196,16.1499 178.5,15.5 Z M 152.5,24.5 C 154.074,24.0629 155.241,23.0629 156,21.5C 159.29,23.1992 159.29,24.8659 156,26.5C 154.541,26.1918 153.374,25.5251 152.5,24.5 Z M 206.5,24.5 C 205.057,25.7027 203.391,26.2027 201.5,26C 200.07,24.1197 200.404,22.6197 202.5,21.5C 203.386,22.325 203.719,23.325 203.5,24.5C 204.5,24.5 205.5,24.5 206.5,24.5 Z M 151.5,27.5 C 152.773,28.0768 152.773,28.7435 151.5,29.5C 150.537,29.0302 150.537,28.3635 151.5,27.5 Z"/></g>
<g><path style="opacity:1" fill="#fefefe" d="M 108.5,18.5 C 107.833,17.1667 107.833,17.1667 108.5,18.5 Z"/></g>
<g><path style="opacity:1" fill="#fefefe" d="M 120.5,22.5 C 120.322,25.2165 119.822,27.8832 119,30.5C 118.282,31.4506 117.449,31.6172 116.5,31C 117.93,26.8546 118.263,22.688 117.5,18.5C 116.448,18.3505 115.448,18.5172 114.5,19C 116.036,20.5994 116.536,22.4328 116,24.5C 114.708,25.7911 113.542,25.7911 112.5,24.5C 111.833,22.8333 111.167,21.1667 110.5,19.5C 112.795,17.615 115.462,17.115 118.5,18C 119.099,19.6225 119.766,21.1225 120.5,22.5 Z M 112.5,24.5 C 112.218,20.4122 112.885,19.9122 114.5,23C 114.164,24.0299 113.497,24.5299 112.5,24.5 Z"/></g>
<g><path style="opacity:1" fill="#fefefe" d="M 124.5,18.5 C 123.391,18.5569 122.391,18.8902 121.5,19.5C 122.053,17.4482 123.053,17.1148 124.5,18.5 Z"/></g>
<g><path style="opacity:1" fill="#fefefe" d="M 108.5,18.5 C 109.167,18.5 109.5,18.8333 109.5,19.5C 109.167,19.1667 108.833,18.8333 108.5,18.5 Z"/></g>
<g><path style="opacity:1" fill="#fefefe" d="M 124.5,18.5 C 125.5,19.1667 126.5,19.8333 127.5,20.5C 126.572,23.4535 125.739,26.4535 125,29.5C 124.282,30.4506 123.449,30.6172 122.5,30C 123.864,26.3173 124.531,22.484 124.5,18.5 Z"/></g>
<g><path style="opacity:1" fill="#fefefe" d="M 128.5,19.5 C 129.189,18.2264 130.023,18.2264 131,19.5C 131.081,24.3566 131.248,29.0233 131.5,33.5C 130.992,35.2327 130.159,35.566 129,34.5C 129.295,29.332 129.128,24.332 128.5,19.5 Z"/></g>
<g><path style="opacity:1" fill="#fefefe" d="M 109.5,19.5 C 109.833,19.5 110.167,19.5 110.5,19.5C 110.884,21.6648 110.217,23.3315 108.5,24.5C 107.316,22.533 107.649,20.8664 109.5,19.5 Z"/></g>
<g><path style="opacity:1" fill="#fefefe" d="M 121.5,19.5 C 121.737,20.791 121.404,21.791 120.5,22.5C 120.263,21.209 120.596,20.209 121.5,19.5 Z"/></g>
<g><path style="opacity:1" fill="#fefefe" d="M 128.5,19.5 C 127.833,20.1667 127.833,20.1667 128.5,19.5 Z"/></g>
<g><path style="opacity:1" fill="#fefefe" d="M 140.5,28.5 C 142.062,30.9007 141.729,32.9007 139.5,34.5C 139.768,32.901 139.434,31.5676 138.5,30.5C 138.5,29.1667 137.833,28.5 136.5,28.5C 136.5,29.5 136.5,30.5 136.5,31.5C 134.805,32.8264 133.472,32.4931 132.5,30.5C 132.549,27.9009 133.549,25.7342 135.5,24C 134.833,23.6667 134.167,23.3333 133.5,23C 134.973,22.2904 135.64,21.1238 135.5,19.5C 136.5,19.5 137.5,19.5 138.5,19.5C 136.884,23.2398 137.551,26.2398 140.5,28.5 Z M 136.5,28.5 C 137.833,28.5 138.5,29.1667 138.5,30.5C 137.833,30.5 137.5,30.8333 137.5,31.5C 137.167,31.5 136.833,31.5 136.5,31.5C 136.5,30.5 136.5,29.5 136.5,28.5 Z"/></g>
<g><path style="opacity:1" fill="#fefefe" d="M 142.5,25.5 C 143.833,26.1667 143.833,26.1667 142.5,25.5 Z"/></g>
<g><path style="opacity:1" fill="#fefefe" d="M 142.5,26.5 C 141.833,27.1667 141.833,27.1667 142.5,26.5 Z"/></g>
<g><path style="opacity:1" fill="#fefefe" d="M 141.5,27.5 C 140.833,28.1667 140.833,28.1667 141.5,27.5 Z"/></g>
<g><path style="opacity:1" fill="#fefefe" d="M 132.5,30.5 C 132.737,31.791 132.404,32.791 131.5,33.5C 131.263,32.209 131.596,31.209 132.5,30.5 Z"/></g>
<g><path style="opacity:1" fill="#fefefe" d="M 136.5,31.5 C 136.833,31.5 137.167,31.5 137.5,31.5C 137.285,33.1788 137.952,34.1788 139.5,34.5C 138.791,35.404 137.791,35.7373 136.5,35.5C 136.5,34.1667 136.5,32.8333 136.5,31.5 Z"/></g>
<g><path style="opacity:0.668" fill="#b30707" d="M 204.5,101.5 C 204.5,100.5 204.5,99.5 204.5,98.5C 205.338,98.1583 205.672,97.4916 205.5,96.5C 210.127,93.2821 211.794,88.9488 210.5,83.5C 212.718,82.8123 214.218,83.8123 215,86.5C 215.309,85.2341 215.809,84.0674 216.5,83C 212.603,79.3694 210.77,74.8694 211,69.5C 210.64,67.5789 209.806,65.9122 208.5,64.5C 208.957,63.7025 209.624,63.3691 210.5,63.5C 210.842,64.3382 211.508,64.6716 212.5,64.5C 214.961,66.153 217.128,68.153 219,70.5C 219.667,69.5 219.667,68.5 219,67.5C 216.429,65.0244 214.929,62.0244 214.5,58.5C 214.448,56.0971 214.781,53.7638 215.5,51.5C 217.274,50.119 218.774,50.4523 220,52.5C 222.127,50.4305 221.961,48.5971 219.5,47C 219.82,45.3468 220.82,44.3468 222.5,44C 221.812,41.7823 222.812,40.2823 225.5,39.5C 230,43.4151 231.667,42.4151 230.5,36.5C 231.833,36.5 233.167,36.5 234.5,36.5C 235.179,38.6682 236.179,40.6682 237.5,42.5C 237.167,43.1667 236.833,43.8333 236.5,44.5C 234.681,42.0886 232.681,41.922 230.5,44C 233.706,44.6247 234.706,46.2914 233.5,49C 230.97,48.204 228.304,47.8707 225.5,48C 227.573,48.1183 228.907,49.1183 229.5,51C 226.642,57.4918 224.308,64.1585 222.5,71C 222.667,71.8333 222.833,72.6667 223,73.5C 226.04,67.3237 230.54,65.657 236.5,68.5C 232.833,73.5 228.5,77.8333 223.5,81.5C 225.353,81.92 227.187,82.2533 229,82.5C 229.333,84.0468 228.833,85.3801 227.5,86.5C 228.833,87.1667 230.167,87.8333 231.5,88.5C 227.636,102.262 218.636,108.262 204.5,106.5C 204.5,104.833 204.5,103.167 204.5,101.5 Z M 222.5,52.5 C 224.657,53.0533 224.49,54.0533 222,55.5C 221.53,54.4232 221.697,53.4232 222.5,52.5 Z M 216.5,54.5 C 217.289,54.7828 217.956,55.2828 218.5,56C 217.184,56.5281 216.517,56.0281 216.5,54.5 Z M 229.5,72.5 C 229.586,71.5041 229.252,70.6708 228.5,70C 232.044,69.3211 232.377,70.1545 229.5,72.5 Z M 212.5,90.5 C 213.613,91.9464 213.78,93.6131 213,95.5C 212.626,94.5838 212.126,93.7504 211.5,93C 212.252,92.3292 212.586,91.4959 212.5,90.5 Z M 220.5,92.5 C 220.517,90.9719 221.184,90.4719 222.5,91C 221.956,91.7172 221.289,92.2172 220.5,92.5 Z M 215.5,92.5 C 218.001,92.5109 218.168,93.1776 216,94.5C 215.536,93.9056 215.369,93.2389 215.5,92.5 Z M 211.5,96.5 C 212.797,97.8488 212.63,99.1821 211,100.5C 210.805,99.1807 210.972,97.8474 211.5,96.5 Z M 208.5,97.5 C 208.852,100.073 208.352,102.406 207,104.5C 206.174,101.788 206.674,99.4551 208.5,97.5 Z"/></g>
<g><path style="opacity:0.813" fill="#fefffe" d="M 134.5,61.5 C 134.5,60.8333 134.167,60.5 133.5,60.5C 131.675,54.1842 129.175,48.1842 126,42.5C 123.86,40.5131 121.36,39.1798 118.5,38.5C 126.833,37.1667 135.167,37.1667 143.5,38.5C 142.675,39.3857 141.675,39.719 140.5,39.5C 142.472,47.119 145.305,54.4524 149,61.5C 153.003,54.4983 156.169,47.1649 158.5,39.5C 157.325,39.719 156.325,39.3857 155.5,38.5C 159.833,37.1667 164.167,37.1667 168.5,38.5C 165.64,39.1798 163.14,40.5131 161,42.5C 157.484,49.5311 153.984,56.5311 150.5,63.5C 145.544,64.4941 140.544,64.8275 135.5,64.5C 135.737,63.209 135.404,62.209 134.5,61.5 Z"/></g>
<g><path style="opacity:0.862" fill="#fefffe" d="M 171.5,37.5 C 179.528,37.169 187.528,37.5023 195.5,38.5C 192.932,38.9523 191.599,40.4523 191.5,43C 193.423,49.8592 195.423,56.6925 197.5,63.5C 193.217,64.4922 188.884,64.8256 184.5,64.5C 182.73,56.0226 180.063,47.8559 176.5,40C 174.256,39.9504 172.589,39.1171 171.5,37.5 Z"/></g>
<g><path style="opacity:0.572" fill="#fefefe" d="M 215.5,51.5 C 214.781,53.7638 214.448,56.0971 214.5,58.5C 213.542,60.3024 212.875,62.3024 212.5,64.5C 211.508,64.6716 210.842,64.3382 210.5,63.5C 211.957,56.4589 213.624,49.4589 215.5,42.5C 214.461,40.4689 212.795,39.1355 210.5,38.5C 214.5,37.1667 218.5,37.1667 222.5,38.5C 217.853,41.4539 215.519,45.7872 215.5,51.5 Z"/></g>
<g><path style="opacity:0.469" fill="#b30706" d="M 133.5,60.5 C 134.167,60.5 134.5,60.8333 134.5,61.5C 133.895,63.0257 132.729,64.0257 131,64.5C 130.51,65.7932 130.343,67.1266 130.5,68.5C 129.5,68.5 128.5,68.5 127.5,68.5C 127.5,66.8333 127.5,65.1667 127.5,63.5C 126.5,63.5 125.5,63.5 124.5,63.5C 124.5,62.5 124.5,61.5 124.5,60.5C 125.5,60.5 126.5,60.5 127.5,60.5C 127.5,59.1667 127.5,57.8333 127.5,56.5C 128.5,56.5 129.5,56.5 130.5,56.5C 130.088,58.9726 131.088,60.3059 133.5,60.5 Z"/></g>
<g><path style="opacity:0.505" fill="#b30706" d="M 134.5,78.5 C 134.5,78.8333 134.5,79.1667 134.5,79.5C 131.09,79.3838 129.756,81.0504 130.5,84.5C 129.5,84.5 128.5,84.5 127.5,84.5C 127.978,81.7224 126.978,79.7224 124.5,78.5C 127.329,77.175 127.996,75.175 126.5,72.5C 124.742,73.1279 123.242,74.1279 122,75.5C 121.229,78.1897 120.396,80.8564 119.5,83.5C 118.183,80.5678 117.016,77.5678 116,74.5C 114.013,73.782 112.179,72.782 110.5,71.5C 112.386,70.5937 114.22,69.5937 116,68.5C 117.072,65.7821 118.238,63.1155 119.5,60.5C 119.953,66.2835 122.953,69.9502 128.5,71.5C 129.829,74.5461 131.829,76.8794 134.5,78.5 Z M 118.5,68.5 C 120.078,69.0656 121.412,70.0656 122.5,71.5C 120.257,75.1685 118.257,75.1685 116.5,71.5C 117.193,70.4822 117.859,69.4822 118.5,68.5 Z"/></g>
<g><path style="opacity:1" fill="#cdca76" d="M 170.5,68.5 C 169.71,69.6085 169.21,70.9419 169,72.5C 168.192,70.4213 168.359,68.4213 169.5,66.5C 170.298,66.9569 170.631,67.6236 170.5,68.5 Z"/></g>
<g><path style="opacity:1" fill="#666300" d="M 173.5,68.5 C 173.369,67.6236 173.702,66.9569 174.5,66.5C 175.641,68.4213 175.808,70.4213 175,72.5C 174.79,70.9419 174.29,69.6085 173.5,68.5 Z"/></g>
<g><path style="opacity:1" fill="#615e00" d="M 141.5,67.5 C 142.613,68.9464 142.78,70.6131 142,72.5C 141.506,70.8659 141.34,69.1992 141.5,67.5 Z"/></g>
<g><path style="opacity:1" fill="#817e00" d="M 146.5,69.5 C 145.737,68.7321 144.737,68.2321 143.5,68C 145.167,67.3333 146.833,67.3333 148.5,68C 147.956,68.7172 147.289,69.2172 146.5,69.5 Z"/></g>
<g><path style="opacity:1" fill="#a3a008" d="M 149.5,67.5 C 152.85,67.335 156.183,67.5017 159.5,68C 158.033,69.0975 157.199,70.5975 157,72.5C 156.51,71.2068 156.343,69.8734 156.5,68.5C 154.473,68.3379 152.473,68.5045 150.5,69C 154.5,69.6667 154.5,70.3333 150.5,71C 155.541,72.0076 155.208,72.5076 149.5,72.5C 149.5,70.8333 149.5,69.1667 149.5,67.5 Z"/></g>
<g><path style="opacity:1" fill="#535100" d="M 173.5,68.5 C 173.672,69.4916 173.338,70.1583 172.5,70.5C 172.328,69.5084 172.662,68.8417 173.5,68.5 Z"/></g>
<g><path style="opacity:1" fill="#fcfa62" d="M 195.5,69.5 C 195.167,69.5 194.833,69.5 194.5,69.5C 194.167,69.5 193.833,69.5 193.5,69.5C 194.167,66.8333 194.833,66.8333 195.5,69.5 Z"/></g>
<g><path style="opacity:1" fill="#cac855" d="M 200.5,69.5 C 199.732,70.2625 199.232,71.2625 199,72.5C 198.202,70.7412 198.369,69.0745 199.5,67.5C 200.298,67.9569 200.631,68.6236 200.5,69.5 Z"/></g>
<g><path style="opacity:1" fill="#535100" d="M 146.5,69.5 C 145.833,70.1667 145.833,70.1667 146.5,69.5 Z"/></g>
<g><path style="opacity:1" fill="#7d7a18" d="M 160.5,67.5 C 162.039,69.9818 163.539,69.9818 165,67.5C 165.667,69.1667 165.667,70.8333 165,72.5C 163.667,69.8333 162.333,69.8333 161,72.5C 160.506,70.8659 160.34,69.1992 160.5,67.5 Z"/></g>
<g><path style="opacity:1" fill="#757200" d="M 170.5,68.5 C 171.338,68.8417 171.672,69.5084 171.5,70.5C 170.662,70.1583 170.328,69.4916 170.5,68.5 Z"/></g>
<g><path style="opacity:1" fill="#565300" d="M 193.5,69.5 C 193.833,69.5 194.167,69.5 194.5,69.5C 194.833,70.8333 195.167,70.8333 195.5,69.5C 196.267,70.172 196.934,71.0053 197.5,72C 197.167,72.1667 196.833,72.3333 196.5,72.5C 194.865,71.6698 193.198,71.5031 191.5,72C 192.066,71.0053 192.733,70.172 193.5,69.5 Z"/></g>
<g><path style="opacity:1" fill="#a5a300" d="M 200.5,69.5 C 201.167,69.5 201.5,69.8333 201.5,70.5C 201.167,70.1667 200.833,69.8333 200.5,69.5 Z"/></g>
<g><path style="opacity:1" fill="#535100" d="M 171.5,70.5 C 171.833,70.5 172.167,70.5 172.5,70.5C 172.167,73.1667 171.833,73.1667 171.5,70.5 Z"/></g>
<g><path style="opacity:1" fill="#f3f00d" d="M 178.5,67.5 C 180.384,68.3816 181.717,69.8816 182.5,72C 180.5,71.3333 178.5,71.3333 176.5,72C 177.582,70.6703 178.249,69.1703 178.5,67.5 Z"/></g>
<g><path style="opacity:1" fill="#e6e306" d="M 185.5,67.5 C 185.5,67.8333 185.5,68.1667 185.5,68.5C 184.443,69.206 184.776,69.5393 186.5,69.5C 186.5,70.1667 186.5,70.8333 186.5,71.5C 185.175,70.0474 184.342,70.3808 184,72.5C 183.833,71.6667 183.667,70.8333 183.5,70C 183.684,68.6244 184.351,67.7911 185.5,67.5 Z"/></g>
<g><path style="opacity:1" fill="#c1be34" d="M 201.5,70.5 C 202.268,69.7375 202.768,68.7375 203,67.5C 203.333,68.8333 203.667,70.1667 204,71.5C 205.911,66.338 207.744,66.5047 209.5,72C 207.662,71.3673 205.829,71.534 204,72.5C 202.699,72.3613 201.866,71.6946 201.5,70.5 Z"/></g>
<g><path style="opacity:1" fill="#979400" d="M 135.5,66.5 C 136.451,67.9187 136.784,69.5853 136.5,71.5C 141.5,72.0031 141.167,72.3364 135.5,72.5C 135.5,70.5 135.5,68.5 135.5,66.5 Z"/></g>
<g><path style="opacity:1" fill="#a19e00" d="M 145.5,70.5 C 146.263,71.2679 147.263,71.7679 148.5,72C 146.833,72.6667 145.167,72.6667 143.5,72C 144.044,71.2828 144.711,70.7828 145.5,70.5 Z"/></g>
<g><path style="opacity:1" fill="#979400" d="M 185.5,68.5 C 185.5,68.1667 185.5,67.8333 185.5,67.5C 186.5,67.5 187.5,67.5 188.5,67.5C 188.67,68.8221 188.337,69.9887 187.5,71C 187.833,71.1667 188.167,71.3333 188.5,71.5C 189.987,66.3428 190.653,66.6761 190.5,72.5C 188.901,72.7678 187.568,72.4345 186.5,71.5C 186.5,70.8333 186.5,70.1667 186.5,69.5C 187.557,68.794 187.224,68.4607 185.5,68.5 Z"/></g>
<g><path style="opacity:0.499" fill="#fefffe" d="M 134.5,79.5 C 134.5,79.1667 134.5,78.8333 134.5,78.5C 135.267,77.828 135.934,76.9947 136.5,76C 137.332,75.3123 137.998,75.479 138.5,76.5C 134.024,84.1072 130.69,92.1072 128.5,100.5C 127.311,101.722 123.978,101.889 118.5,101C 120.762,100.358 122.929,99.5248 125,98.5C 128.18,92.1401 131.347,85.8068 134.5,79.5 Z"/></g>
<g><path style="opacity:0.875" fill="#fefffe" d="M 172.5,101.5 C 164.16,101.666 155.827,101.5 147.5,101C 149.41,100.592 150.41,99.4251 150.5,97.5C 147.778,90.389 144.778,83.389 141.5,76.5C 146.167,75.1667 150.833,75.1667 155.5,76.5C 158.394,83.2879 161.56,89.9546 165,96.5C 167.025,98.9919 169.525,100.659 172.5,101.5 Z"/></g>
<g><path style="opacity:0.824" fill="#fefffe" d="M 205.5,96.5 C 204.662,96.8417 204.328,97.5084 204.5,98.5C 204.5,99.5 204.5,100.5 204.5,101.5C 201.5,101.5 198.5,101.5 195.5,101.5C 195.737,100.209 195.404,99.209 194.5,98.5C 192.656,90.7903 190.656,83.1236 188.5,75.5C 192.514,75.3345 196.514,75.5012 200.5,76C 201.893,79.3989 203.06,82.8989 204,86.5C 205.348,82.7743 206.848,79.1077 208.5,75.5C 208.833,76.1667 209.167,76.8333 209.5,77.5C 207.908,83.7935 206.575,90.1268 205.5,96.5 Z"/></g>
<g><path style="opacity:1" fill="#fcfdfc" d="M 193.5,98.5 C 192.167,99.1667 192.167,99.8333 193.5,100.5C 193.088,102.973 194.088,104.306 196.5,104.5C 195.342,105.573 195.342,106.739 196.5,108C 196.361,109.301 195.695,110.134 194.5,110.5C 194.003,108.403 193.67,106.57 193.5,105C 191.807,104.516 190.473,105.016 189.5,106.5C 189.443,105.391 189.11,104.391 188.5,103.5C 189.304,101.811 190.304,100.145 191.5,98.5C 192.257,97.2267 192.923,97.2267 193.5,98.5 Z"/></g>
<g><path style="opacity:1" fill="#fcfdfc" d="M 193.5,98.5 C 193.833,98.5 194.167,98.5 194.5,98.5C 194.672,99.4916 194.338,100.158 193.5,100.5C 193.5,99.8333 193.5,99.1667 193.5,98.5 Z"/></g>
<g><path style="opacity:1" fill="#fcfdfc" d="M 180.5,100.5 C 181.601,99.4017 182.934,99.235 184.5,100C 183.436,101.511 182.103,101.677 180.5,100.5 Z"/></g>
<g><path style="opacity:1" fill="#fcfdfc" d="M 188.5,103.5 C 185.666,105.649 185.999,106.649 189.5,106.5C 188.432,107.434 187.099,107.768 185.5,107.5C 185.933,104.834 186.433,102.168 187,99.5C 187.41,100.901 187.91,102.234 188.5,103.5 Z"/></g>
<g><path style="opacity:1" fill="#fcfdfc" d="M 172.5,101.5 C 173.5,101.833 174.167,102.5 174.5,103.5C 172.448,104.053 172.115,105.053 173.5,106.5C 172.791,107.404 171.791,107.737 170.5,107.5C 170.253,105.142 170.919,103.142 172.5,101.5 Z"/></g>
<g><path style="opacity:1" fill="#fcfdfc" d="M 177.5,103.5 C 176.167,104.5 176.167,105.5 177.5,106.5C 176.197,110.482 174.863,110.482 173.5,106.5C 174.11,105.609 174.443,104.609 174.5,103.5C 175.472,100.902 176.472,100.902 177.5,103.5 Z"/></g>
<g><path style="opacity:1" fill="#fcfdfc" d="M 181.5,103.5 C 182.209,102.596 183.209,102.263 184.5,102.5C 184.5,104.167 184.5,105.833 184.5,107.5C 183.167,108.5 183.167,109.5 184.5,110.5C 184.5,110.833 184.5,111.167 184.5,111.5C 183.833,111.5 183.167,111.5 182.5,111.5C 182.806,108.615 182.473,105.948 181.5,103.5 Z"/></g>
<g><path style="opacity:1" fill="#fcfdfc" d="M 197.5,102.5 C 198.833,103.167 198.833,103.167 197.5,102.5 Z"/></g>
<g><path style="opacity:1" fill="#fcfdfc" d="M 177.5,103.5 C 178.833,103.5 180.167,103.5 181.5,103.5C 181.229,105.312 180.562,106.978 179.5,108.5C 178.818,107.757 178.151,107.091 177.5,106.5C 177.5,105.5 177.5,104.5 177.5,103.5 Z"/></g>
<g><path style="opacity:1" fill="#fcfdfc" d="M 197.5,103.5 C 196.833,104.167 196.833,104.167 197.5,103.5 Z"/></g>
<g><path style="opacity:1" fill="#fcfdfc" d="M 184.5,107.5 C 184.833,107.5 185.167,107.5 185.5,107.5C 185.737,108.791 185.404,109.791 184.5,110.5C 184.5,109.5 184.5,108.5 184.5,107.5 Z"/></g>
<g><path style="opacity:1" fill="#fcfdfc" d="M 194.5,110.5 C 194.5,110.833 194.5,111.167 194.5,111.5C 193.5,111.5 192.5,111.5 191.5,111.5C 191.351,110.448 191.517,109.448 192,108.5C 192.417,109.756 193.25,110.423 194.5,110.5 Z"/></g>
</svg>
